<svg width="41" height="41" viewBox="0 0 41 41" fill="none" xmlns="http://www.w3.org/2000/svg">
<g clip-path="url(#clip0_6113_3851)">
<mask id="path-1-outside-1_6113_3851" maskUnits="userSpaceOnUse" x="3.5166" y="3.09473" width="35" height="35" fill="black">
<rect fill="white" x="3.5166" y="3.09473" width="35" height="35"/>
<path d="M25.0443 11.0882C24.6089 10.8535 24.1574 10.7242 23.6864 10.6596C23.4764 10.6307 23.2638 10.6222 23.0521 10.6128C22.6984 10.5967 22.4858 10.4062 22.4807 10.0907C22.4748 9.77429 22.6788 9.57274 23.0232 9.53192C23.4645 9.47919 23.9168 9.46218 24.342 9.34822C25.5391 9.02761 26.3265 8.2197 26.8205 7.11073C27.1367 6.39976 27.3093 5.65138 27.3476 4.87238C27.3527 4.76608 27.3578 4.65977 27.3757 4.55517C27.4267 4.26007 27.6444 4.08573 27.9402 4.09508C28.1979 4.10359 28.4002 4.30174 28.4368 4.58409C28.4946 5.03226 28.521 5.4881 28.6153 5.92862C28.8713 7.11753 29.384 8.16102 30.423 8.87113C31.0479 9.29805 31.7519 9.48514 32.501 9.52256C32.6354 9.52937 32.7714 9.52851 32.9023 9.55403C33.1846 9.60931 33.347 9.83552 33.3292 10.1238C33.3122 10.3892 33.1107 10.5975 32.8284 10.6035C32.3012 10.6154 31.7783 10.6579 31.2886 10.8586C30.9638 10.9921 30.6594 11.1758 30.3482 11.3399C30.3159 11.357 30.2955 11.3961 30.2478 11.4479C30.7146 11.6155 31.1559 11.7805 31.6006 11.9318C32.0147 12.073 32.3242 12.3324 32.5503 12.704C33.9805 15.0631 35.4123 17.4206 36.8424 19.7788C37.3832 20.6709 37.2089 21.5248 36.3518 22.1277C35.6912 22.592 34.9404 22.8718 34.1837 23.1295C32.9032 23.5658 31.5904 23.8796 30.2563 24.099C30.1067 24.1237 30.071 24.1858 30.0735 24.3201C30.0786 24.7096 30.0752 25.0991 30.0752 25.4886C30.0752 28.2423 30.0625 30.9969 30.0837 33.7506C30.0897 34.4692 29.7938 34.9667 29.2216 35.3426C28.5176 35.8053 27.726 36.0442 26.9131 36.2109C24.1311 36.7833 21.3193 36.8011 18.4998 36.6361C17.1573 36.557 15.8224 36.4006 14.5121 36.0808C13.8098 35.9099 13.1219 35.693 12.5013 35.3095C12.1033 35.0628 11.753 34.7643 11.6382 34.2813C11.6025 34.1325 11.5991 33.9726 11.5991 33.8186C11.5974 30.7248 11.5974 27.6309 11.5974 24.537C11.5974 24.2087 11.5966 24.2147 11.2701 24.1662C9.54916 23.9119 7.87076 23.5046 6.29523 22.7451C5.82248 22.5172 5.37015 22.2519 5.00199 21.8683C4.45357 21.2977 4.36089 20.5655 4.76987 19.8826C5.58441 18.5236 6.41086 17.1722 7.23306 15.8175C7.8461 14.808 8.46679 13.8028 9.06792 12.7865C9.33065 12.3435 9.69031 12.056 10.175 11.8868C11.7896 11.3238 13.3991 10.7463 15.0104 10.1748C15.7484 9.91291 16.3104 10.1842 16.5621 10.9275C16.8121 11.6674 17.3528 12.1445 18.016 12.4846C19.2693 13.1276 20.6025 13.2653 21.9808 13.0374C22.7945 12.903 23.5546 12.6318 24.2161 12.1249C24.5732 11.8511 24.8691 11.5253 25.0451 11.0848L25.0443 11.0882ZM25.9515 11.7601C25.9073 11.817 25.8784 11.8468 25.858 11.8825C25.5213 12.4676 25.0443 12.9132 24.4771 13.2645C23.581 13.8198 22.5955 14.0971 21.5514 14.1855C20.1017 14.3088 18.7115 14.1039 17.4251 13.3971C16.5578 12.9209 15.8717 12.2652 15.546 11.2983C15.5018 11.1656 15.4398 11.1656 15.3241 11.2073C13.7146 11.7856 12.105 12.3622 10.493 12.9311C10.2795 13.0068 10.1299 13.131 10.0143 13.3215C8.60368 15.6508 7.19055 17.9784 5.77827 20.3061C5.51639 20.7381 5.5453 20.9915 5.96533 21.2807C6.32499 21.5273 6.7093 21.7467 7.10637 21.9279C8.1794 22.4169 9.31449 22.7154 10.4674 22.9458C10.8314 23.0181 11.2004 23.064 11.5983 23.127C11.5983 22.9186 11.5983 22.7502 11.5983 22.5818C11.5983 21.8598 11.5949 21.1378 11.6017 20.4149C11.6051 20.0935 11.8321 19.8749 12.1356 19.8741C12.4349 19.8732 12.6628 20.0977 12.679 20.4107C12.6832 20.4881 12.6807 20.5663 12.6807 20.6446C12.6807 24.9775 12.6875 29.3105 12.6696 33.6435C12.6679 34.067 12.8252 34.3059 13.173 34.4743C13.2809 34.5262 13.3881 34.5823 13.4986 34.6291C14.3514 34.9939 15.2518 35.1751 16.1616 35.3146C17.6266 35.5391 19.1035 35.6207 20.5838 35.6318C22.7596 35.6479 24.9295 35.5824 27.0585 35.0628C27.6154 34.9268 28.1605 34.7524 28.6485 34.4352C28.8849 34.2813 29.0005 34.0899 28.9997 33.788C28.9912 29.3981 28.9937 25.009 28.9937 20.619C28.9937 20.534 28.9895 20.4481 28.998 20.3648C29.0303 20.0518 29.2947 19.8443 29.6059 19.8817C29.8967 19.9166 30.0727 20.1283 30.0744 20.4626C30.0778 21.2339 30.0761 22.0061 30.0761 22.7774C30.0761 22.8531 30.0761 22.9288 30.0761 23.0207C30.1594 23.0156 30.2147 23.0173 30.2682 23.0079C31.5368 22.7817 32.7927 22.4985 34.0009 22.0469C34.6063 21.8207 35.1921 21.5307 35.7601 21.2194C36.1155 21.0247 36.152 20.7253 35.9446 20.3843C34.5068 18.0142 33.069 15.6431 31.621 13.2781C31.536 13.1395 31.3761 13.0187 31.2231 12.9566C30.792 12.7806 30.3456 12.6411 29.9069 12.4829C29.3738 12.2916 29.3797 12.2924 29.1221 12.8078C28.6944 13.6642 28.4861 14.5716 28.4393 15.5241C28.4232 15.8541 28.1894 16.0692 27.8977 16.065C27.6137 16.0607 27.4037 15.8515 27.3663 15.5317C27.3561 15.4475 27.3502 15.3625 27.3459 15.2775C27.3136 14.6218 27.1767 13.9882 26.9488 13.3742C26.7278 12.7789 26.4217 12.2354 25.9523 11.7592L25.9515 11.7601ZM25.4949 10.0779C26.6206 10.7081 27.4037 11.5942 27.9062 12.8069C28.4028 11.584 29.1961 10.7055 30.315 10.0745C29.1825 9.44602 28.407 8.55392 27.8994 7.3514C27.402 8.57093 26.6113 9.44347 25.4949 10.0779Z"/>
<path d="M22.4571 24.7496C22.1408 24.7453 21.9419 24.5251 21.9249 24.1602C21.8909 23.4238 21.7378 22.7145 21.4003 22.0554C20.8501 20.9813 19.9616 20.4379 18.756 20.4098C18.2985 20.3996 18.0366 20.0935 18.1514 19.7048C18.2194 19.4752 18.4031 19.3366 18.6803 19.3272C19.1369 19.3119 19.5824 19.2464 20.0016 19.0568C20.8068 18.6928 21.2889 18.0422 21.5916 17.2385C21.7931 16.7053 21.8994 16.1508 21.924 15.5811C21.9402 15.2103 22.1493 14.9781 22.469 14.9789C22.793 14.9789 22.9868 15.206 23.0098 15.5836C23.0659 16.5089 23.2768 17.3891 23.8311 18.1545C24.3753 18.9054 25.1346 19.2566 26.0444 19.3179C26.1217 19.323 26.2 19.3221 26.2773 19.3281C26.5928 19.351 26.8232 19.584 26.8172 19.8723C26.8113 20.1606 26.5715 20.3733 26.2637 20.4124C25.8599 20.4642 25.4415 20.4966 25.0615 20.6301C24.2359 20.9201 23.7266 21.5554 23.4001 22.3446C23.1543 22.9382 23.031 23.5607 23.0064 24.2028C22.9936 24.537 22.7726 24.7538 22.4571 24.7496ZM22.469 21.7484C22.8431 20.9464 23.3746 20.3384 24.0709 19.8911C23.7555 19.6036 23.4273 19.3536 23.1611 19.0491C22.8942 18.7447 22.6892 18.3858 22.4435 18.032C22.089 18.7872 21.5507 19.397 20.8255 19.8681C21.5627 20.3375 22.0907 20.9507 22.469 21.7484Z"/>
</mask>
<path d="M25.0443 11.0882C24.6089 10.8535 24.1574 10.7242 23.6864 10.6596C23.4764 10.6307 23.2638 10.6222 23.0521 10.6128C22.6984 10.5967 22.4858 10.4062 22.4807 10.0907C22.4748 9.77429 22.6788 9.57274 23.0232 9.53192C23.4645 9.47919 23.9168 9.46218 24.342 9.34822C25.5391 9.02761 26.3265 8.2197 26.8205 7.11073C27.1367 6.39976 27.3093 5.65138 27.3476 4.87238C27.3527 4.76608 27.3578 4.65977 27.3757 4.55517C27.4267 4.26007 27.6444 4.08573 27.9402 4.09508C28.1979 4.10359 28.4002 4.30174 28.4368 4.58409C28.4946 5.03226 28.521 5.4881 28.6153 5.92862C28.8713 7.11753 29.384 8.16102 30.423 8.87113C31.0479 9.29805 31.7519 9.48514 32.501 9.52256C32.6354 9.52937 32.7714 9.52851 32.9023 9.55403C33.1846 9.60931 33.347 9.83552 33.3292 10.1238C33.3122 10.3892 33.1107 10.5975 32.8284 10.6035C32.3012 10.6154 31.7783 10.6579 31.2886 10.8586C30.9638 10.9921 30.6594 11.1758 30.3482 11.3399C30.3159 11.357 30.2955 11.3961 30.2478 11.4479C30.7146 11.6155 31.1559 11.7805 31.6006 11.9318C32.0147 12.073 32.3242 12.3324 32.5503 12.704C33.9805 15.0631 35.4123 17.4206 36.8424 19.7788C37.3832 20.6709 37.2089 21.5248 36.3518 22.1277C35.6912 22.592 34.9404 22.8718 34.1837 23.1295C32.9032 23.5658 31.5904 23.8796 30.2563 24.099C30.1067 24.1237 30.071 24.1858 30.0735 24.3201C30.0786 24.7096 30.0752 25.0991 30.0752 25.4886C30.0752 28.2423 30.0625 30.9969 30.0837 33.7506C30.0897 34.4692 29.7938 34.9667 29.2216 35.3426C28.5176 35.8053 27.726 36.0442 26.9131 36.2109C24.1311 36.7833 21.3193 36.8011 18.4998 36.6361C17.1573 36.557 15.8224 36.4006 14.5121 36.0808C13.8098 35.9099 13.1219 35.693 12.5013 35.3095C12.1033 35.0628 11.753 34.7643 11.6382 34.2813C11.6025 34.1325 11.5991 33.9726 11.5991 33.8186C11.5974 30.7248 11.5974 27.6309 11.5974 24.537C11.5974 24.2087 11.5966 24.2147 11.2701 24.1662C9.54916 23.9119 7.87076 23.5046 6.29523 22.7451C5.82248 22.5172 5.37015 22.2519 5.00199 21.8683C4.45357 21.2977 4.36089 20.5655 4.76987 19.8826C5.58441 18.5236 6.41086 17.1722 7.23306 15.8175C7.8461 14.808 8.46679 13.8028 9.06792 12.7865C9.33065 12.3435 9.69031 12.056 10.175 11.8868C11.7896 11.3238 13.3991 10.7463 15.0104 10.1748C15.7484 9.91291 16.3104 10.1842 16.5621 10.9275C16.8121 11.6674 17.3528 12.1445 18.016 12.4846C19.2693 13.1276 20.6025 13.2653 21.9808 13.0374C22.7945 12.903 23.5546 12.6318 24.2161 12.1249C24.5732 11.8511 24.8691 11.5253 25.0451 11.0848L25.0443 11.0882ZM25.9515 11.7601C25.9073 11.817 25.8784 11.8468 25.858 11.8825C25.5213 12.4676 25.0443 12.9132 24.4771 13.2645C23.581 13.8198 22.5955 14.0971 21.5514 14.1855C20.1017 14.3088 18.7115 14.1039 17.4251 13.3971C16.5578 12.9209 15.8717 12.2652 15.546 11.2983C15.5018 11.1656 15.4398 11.1656 15.3241 11.2073C13.7146 11.7856 12.105 12.3622 10.493 12.9311C10.2795 13.0068 10.1299 13.131 10.0143 13.3215C8.60368 15.6508 7.19055 17.9784 5.77827 20.3061C5.51639 20.7381 5.5453 20.9915 5.96533 21.2807C6.32499 21.5273 6.7093 21.7467 7.10637 21.9279C8.1794 22.4169 9.31449 22.7154 10.4674 22.9458C10.8314 23.0181 11.2004 23.064 11.5983 23.127C11.5983 22.9186 11.5983 22.7502 11.5983 22.5818C11.5983 21.8598 11.5949 21.1378 11.6017 20.4149C11.6051 20.0935 11.8321 19.8749 12.1356 19.8741C12.4349 19.8732 12.6628 20.0977 12.679 20.4107C12.6832 20.4881 12.6807 20.5663 12.6807 20.6446C12.6807 24.9775 12.6875 29.3105 12.6696 33.6435C12.6679 34.067 12.8252 34.3059 13.173 34.4743C13.2809 34.5262 13.3881 34.5823 13.4986 34.6291C14.3514 34.9939 15.2518 35.1751 16.1616 35.3146C17.6266 35.5391 19.1035 35.6207 20.5838 35.6318C22.7596 35.6479 24.9295 35.5824 27.0585 35.0628C27.6154 34.9268 28.1605 34.7524 28.6485 34.4352C28.8849 34.2813 29.0005 34.0899 28.9997 33.788C28.9912 29.3981 28.9937 25.009 28.9937 20.619C28.9937 20.534 28.9895 20.4481 28.998 20.3648C29.0303 20.0518 29.2947 19.8443 29.6059 19.8817C29.8967 19.9166 30.0727 20.1283 30.0744 20.4626C30.0778 21.2339 30.0761 22.0061 30.0761 22.7774C30.0761 22.8531 30.0761 22.9288 30.0761 23.0207C30.1594 23.0156 30.2147 23.0173 30.2682 23.0079C31.5368 22.7817 32.7927 22.4985 34.0009 22.0469C34.6063 21.8207 35.1921 21.5307 35.7601 21.2194C36.1155 21.0247 36.152 20.7253 35.9446 20.3843C34.5068 18.0142 33.069 15.6431 31.621 13.2781C31.536 13.1395 31.3761 13.0187 31.2231 12.9566C30.792 12.7806 30.3456 12.6411 29.9069 12.4829C29.3738 12.2916 29.3797 12.2924 29.1221 12.8078C28.6944 13.6642 28.4861 14.5716 28.4393 15.5241C28.4232 15.8541 28.1894 16.0692 27.8977 16.065C27.6137 16.0607 27.4037 15.8515 27.3663 15.5317C27.3561 15.4475 27.3502 15.3625 27.3459 15.2775C27.3136 14.6218 27.1767 13.9882 26.9488 13.3742C26.7278 12.7789 26.4217 12.2354 25.9523 11.7592L25.9515 11.7601ZM25.4949 10.0779C26.6206 10.7081 27.4037 11.5942 27.9062 12.8069C28.4028 11.584 29.1961 10.7055 30.315 10.0745C29.1825 9.44602 28.407 8.55392 27.8994 7.3514C27.402 8.57093 26.6113 9.44347 25.4949 10.0779Z" fill="#FBFBFB"/>
<path d="M22.4571 24.7496C22.1408 24.7453 21.9419 24.5251 21.9249 24.1602C21.8909 23.4238 21.7378 22.7145 21.4003 22.0554C20.8501 20.9813 19.9616 20.4379 18.756 20.4098C18.2985 20.3996 18.0366 20.0935 18.1514 19.7048C18.2194 19.4752 18.4031 19.3366 18.6803 19.3272C19.1369 19.3119 19.5824 19.2464 20.0016 19.0568C20.8068 18.6928 21.2889 18.0422 21.5916 17.2385C21.7931 16.7053 21.8994 16.1508 21.924 15.5811C21.9402 15.2103 22.1493 14.9781 22.469 14.9789C22.793 14.9789 22.9868 15.206 23.0098 15.5836C23.0659 16.5089 23.2768 17.3891 23.8311 18.1545C24.3753 18.9054 25.1346 19.2566 26.0444 19.3179C26.1217 19.323 26.2 19.3221 26.2773 19.3281C26.5928 19.351 26.8232 19.584 26.8172 19.8723C26.8113 20.1606 26.5715 20.3733 26.2637 20.4124C25.8599 20.4642 25.4415 20.4966 25.0615 20.6301C24.2359 20.9201 23.7266 21.5554 23.4001 22.3446C23.1543 22.9382 23.031 23.5607 23.0064 24.2028C22.9936 24.537 22.7726 24.7538 22.4571 24.7496ZM22.469 21.7484C22.8431 20.9464 23.3746 20.3384 24.0709 19.8911C23.7555 19.6036 23.4273 19.3536 23.1611 19.0491C22.8942 18.7447 22.6892 18.3858 22.4435 18.032C22.089 18.7872 21.5507 19.397 20.8255 19.8681C21.5627 20.3375 22.0907 20.9507 22.469 21.7484Z" fill="#FBFBFB"/>
<path d="M25.0443 11.0882C24.6089 10.8535 24.1574 10.7242 23.6864 10.6596C23.4764 10.6307 23.2638 10.6222 23.0521 10.6128C22.6984 10.5967 22.4858 10.4062 22.4807 10.0907C22.4748 9.77429 22.6788 9.57274 23.0232 9.53192C23.4645 9.47919 23.9168 9.46218 24.342 9.34822C25.5391 9.02761 26.3265 8.2197 26.8205 7.11073C27.1367 6.39976 27.3093 5.65138 27.3476 4.87238C27.3527 4.76608 27.3578 4.65977 27.3757 4.55517C27.4267 4.26007 27.6444 4.08573 27.9402 4.09508C28.1979 4.10359 28.4002 4.30174 28.4368 4.58409C28.4946 5.03226 28.521 5.4881 28.6153 5.92862C28.8713 7.11753 29.384 8.16102 30.423 8.87113C31.0479 9.29805 31.7519 9.48514 32.501 9.52256C32.6354 9.52937 32.7714 9.52851 32.9023 9.55403C33.1846 9.60931 33.347 9.83552 33.3292 10.1238C33.3122 10.3892 33.1107 10.5975 32.8284 10.6035C32.3012 10.6154 31.7783 10.6579 31.2886 10.8586C30.9638 10.9921 30.6594 11.1758 30.3482 11.3399C30.3159 11.357 30.2955 11.3961 30.2478 11.4479C30.7146 11.6155 31.1559 11.7805 31.6006 11.9318C32.0147 12.073 32.3242 12.3324 32.5503 12.704C33.9805 15.0631 35.4123 17.4206 36.8424 19.7788C37.3832 20.6709 37.2089 21.5248 36.3518 22.1277C35.6912 22.592 34.9404 22.8718 34.1837 23.1295C32.9032 23.5658 31.5904 23.8796 30.2563 24.099C30.1067 24.1237 30.071 24.1858 30.0735 24.3201C30.0786 24.7096 30.0752 25.0991 30.0752 25.4886C30.0752 28.2423 30.0625 30.9969 30.0837 33.7506C30.0897 34.4692 29.7938 34.9667 29.2216 35.3426C28.5176 35.8053 27.726 36.0442 26.9131 36.2109C24.1311 36.7833 21.3193 36.8011 18.4998 36.6361C17.1573 36.557 15.8224 36.4006 14.5121 36.0808C13.8098 35.9099 13.1219 35.693 12.5013 35.3095C12.1033 35.0628 11.753 34.7643 11.6382 34.2813C11.6025 34.1325 11.5991 33.9726 11.5991 33.8186C11.5974 30.7248 11.5974 27.6309 11.5974 24.537C11.5974 24.2087 11.5966 24.2147 11.2701 24.1662C9.54916 23.9119 7.87076 23.5046 6.29523 22.7451C5.82248 22.5172 5.37015 22.2519 5.00199 21.8683C4.45357 21.2977 4.36089 20.5655 4.76987 19.8826C5.58441 18.5236 6.41086 17.1722 7.23306 15.8175C7.8461 14.808 8.46679 13.8028 9.06792 12.7865C9.33065 12.3435 9.69031 12.056 10.175 11.8868C11.7896 11.3238 13.3991 10.7463 15.0104 10.1748C15.7484 9.91291 16.3104 10.1842 16.5621 10.9275C16.8121 11.6674 17.3528 12.1445 18.016 12.4846C19.2693 13.1276 20.6025 13.2653 21.9808 13.0374C22.7945 12.903 23.5546 12.6318 24.2161 12.1249C24.5732 11.8511 24.8691 11.5253 25.0451 11.0848L25.0443 11.0882ZM25.9515 11.7601C25.9073 11.817 25.8784 11.8468 25.858 11.8825C25.5213 12.4676 25.0443 12.9132 24.4771 13.2645C23.581 13.8198 22.5955 14.0971 21.5514 14.1855C20.1017 14.3088 18.7115 14.1039 17.4251 13.3971C16.5578 12.9209 15.8717 12.2652 15.546 11.2983C15.5018 11.1656 15.4398 11.1656 15.3241 11.2073C13.7146 11.7856 12.105 12.3622 10.493 12.9311C10.2795 13.0068 10.1299 13.131 10.0143 13.3215C8.60368 15.6508 7.19055 17.9784 5.77827 20.3061C5.51639 20.7381 5.5453 20.9915 5.96533 21.2807C6.32499 21.5273 6.7093 21.7467 7.10637 21.9279C8.1794 22.4169 9.31449 22.7154 10.4674 22.9458C10.8314 23.0181 11.2004 23.064 11.5983 23.127C11.5983 22.9186 11.5983 22.7502 11.5983 22.5818C11.5983 21.8598 11.5949 21.1378 11.6017 20.4149C11.6051 20.0935 11.8321 19.8749 12.1356 19.8741C12.4349 19.8732 12.6628 20.0977 12.679 20.4107C12.6832 20.4881 12.6807 20.5663 12.6807 20.6446C12.6807 24.9775 12.6875 29.3105 12.6696 33.6435C12.6679 34.067 12.8252 34.3059 13.173 34.4743C13.2809 34.5262 13.3881 34.5823 13.4986 34.6291C14.3514 34.9939 15.2518 35.1751 16.1616 35.3146C17.6266 35.5391 19.1035 35.6207 20.5838 35.6318C22.7596 35.6479 24.9295 35.5824 27.0585 35.0628C27.6154 34.9268 28.1605 34.7524 28.6485 34.4352C28.8849 34.2813 29.0005 34.0899 28.9997 33.788C28.9912 29.3981 28.9937 25.009 28.9937 20.619C28.9937 20.534 28.9895 20.4481 28.998 20.3648C29.0303 20.0518 29.2947 19.8443 29.6059 19.8817C29.8967 19.9166 30.0727 20.1283 30.0744 20.4626C30.0778 21.2339 30.0761 22.0061 30.0761 22.7774C30.0761 22.8531 30.0761 22.9288 30.0761 23.0207C30.1594 23.0156 30.2147 23.0173 30.2682 23.0079C31.5368 22.7817 32.7927 22.4985 34.0009 22.0469C34.6063 21.8207 35.1921 21.5307 35.7601 21.2194C36.1155 21.0247 36.152 20.7253 35.9446 20.3843C34.5068 18.0142 33.069 15.6431 31.621 13.2781C31.536 13.1395 31.3761 13.0187 31.2231 12.9566C30.792 12.7806 30.3456 12.6411 29.9069 12.4829C29.3738 12.2916 29.3797 12.2924 29.1221 12.8078C28.6944 13.6642 28.4861 14.5716 28.4393 15.5241C28.4232 15.8541 28.1894 16.0692 27.8977 16.065C27.6137 16.0607 27.4037 15.8515 27.3663 15.5317C27.3561 15.4475 27.3502 15.3625 27.3459 15.2775C27.3136 14.6218 27.1767 13.9882 26.9488 13.3742C26.7278 12.7789 26.4217 12.2354 25.9523 11.7592L25.9515 11.7601ZM25.4949 10.0779C26.6206 10.7081 27.4037 11.5942 27.9062 12.8069C28.4028 11.584 29.1961 10.7055 30.315 10.0745C29.1825 9.44602 28.407 8.55392 27.8994 7.3514C27.402 8.57093 26.6113 9.44347 25.4949 10.0779Z" stroke="#FBFBFB" mask="url(#path-1-outside-1_6113_3851)"/>
<path d="M22.4571 24.7496C22.1408 24.7453 21.9419 24.5251 21.9249 24.1602C21.8909 23.4238 21.7378 22.7145 21.4003 22.0554C20.8501 20.9813 19.9616 20.4379 18.756 20.4098C18.2985 20.3996 18.0366 20.0935 18.1514 19.7048C18.2194 19.4752 18.4031 19.3366 18.6803 19.3272C19.1369 19.3119 19.5824 19.2464 20.0016 19.0568C20.8068 18.6928 21.2889 18.0422 21.5916 17.2385C21.7931 16.7053 21.8994 16.1508 21.924 15.5811C21.9402 15.2103 22.1493 14.9781 22.469 14.9789C22.793 14.9789 22.9868 15.206 23.0098 15.5836C23.0659 16.5089 23.2768 17.3891 23.8311 18.1545C24.3753 18.9054 25.1346 19.2566 26.0444 19.3179C26.1217 19.323 26.2 19.3221 26.2773 19.3281C26.5928 19.351 26.8232 19.584 26.8172 19.8723C26.8113 20.1606 26.5715 20.3733 26.2637 20.4124C25.8599 20.4642 25.4415 20.4966 25.0615 20.6301C24.2359 20.9201 23.7266 21.5554 23.4001 22.3446C23.1543 22.9382 23.031 23.5607 23.0064 24.2028C22.9936 24.537 22.7726 24.7538 22.4571 24.7496ZM22.469 21.7484C22.8431 20.9464 23.3746 20.3384 24.0709 19.8911C23.7555 19.6036 23.4273 19.3536 23.1611 19.0491C22.8942 18.7447 22.6892 18.3858 22.4435 18.032C22.089 18.7872 21.5507 19.397 20.8255 19.8681C21.5627 20.3375 22.0907 20.9507 22.469 21.7484Z" stroke="#FBFBFB" mask="url(#path-1-outside-1_6113_3851)"/>
</g>
<defs>
<clipPath id="clip0_6113_3851">
<rect width="34" height="34" fill="white" transform="translate(3.83398 3.41211)"/>
</clipPath>
</defs>
</svg>
