<svg width="37" height="37" viewBox="0 0 37 37" fill="none" xmlns="http://www.w3.org/2000/svg">
<path d="M20.0313 19.4604C20.5207 21.0161 21.8734 22.0008 23.5007 22.0047C26.2101 22.0107 28.9195 22.0127 31.629 21.9988C31.995 21.9988 32.371 21.9391 32.7211 21.8356C34.2091 21.398 35.2754 19.9916 35.2674 18.3444C35.2575 16.2278 35.2654 14.1092 35.2654 11.9926C35.2654 9.87595 35.2654 7.75734 35.2634 5.64072C35.2634 5.42189 35.2436 5.19909 35.2058 4.98425C34.9113 3.24162 33.4233 1.98636 31.6529 1.98438C28.9295 1.98438 26.2061 1.98438 23.4808 1.98438C23.2819 1.98438 23.0829 2.00228 22.888 2.03809C21.0936 2.36433 19.8682 3.80658 19.8662 5.61883C19.8603 9.86799 19.8603 14.1171 19.8722 18.3663C19.8722 18.7323 19.9239 19.1123 20.0333 19.4584L20.0313 19.4604ZM23.5743 4.54262C26.234 4.5645 28.8937 4.5645 31.5534 4.54262C32.176 4.53864 32.7112 5.00414 32.7072 5.70636C32.6893 9.89783 32.6893 14.0913 32.7072 18.2827C32.7092 18.9671 32.1979 19.4525 31.5534 19.4485C28.8937 19.4286 26.234 19.4266 23.5743 19.4485C22.9119 19.4545 22.4125 18.9412 22.4205 18.2847C22.4464 16.188 22.4304 14.0933 22.4304 11.9965C22.4304 9.89982 22.4464 7.80309 22.4205 5.70835C22.4125 5.02801 22.9357 4.53864 23.5743 4.54262Z" fill="#3C6E71"/>
<path d="M13.9197 17.1333C11.2878 17.1253 8.65794 17.1253 6.02609 17.1393C5.65409 17.1413 5.27016 17.2049 4.91407 17.3123C3.44596 17.754 2.38368 19.1644 2.39959 20.8255C2.41749 22.5442 2.40357 24.261 2.40357 25.9797C2.40357 27.7264 2.40357 29.473 2.40556 31.2196C2.40556 31.4245 2.42545 31.6314 2.46126 31.8343C2.7696 33.5968 4.24766 34.8401 6.03405 34.8421C8.6659 34.8421 11.2958 34.8421 13.9276 34.8401C14.1325 34.8401 14.3394 34.8202 14.5423 34.7844C16.2989 34.48 17.5442 33.0239 17.5481 31.2335C17.5581 27.7403 17.5581 24.2471 17.5481 20.7538C17.5422 18.7168 15.9567 17.1393 13.9197 17.1333ZM14.9839 31.142C14.9839 31.8562 14.5682 32.2759 13.86 32.2759C11.2719 32.2759 8.68182 32.2759 6.09373 32.2759C5.39747 32.2759 4.97176 31.8542 4.96977 31.1619C4.96977 27.7104 4.96977 24.261 4.96977 20.8095C4.96977 20.1292 5.39747 19.6975 6.07185 19.6975C8.67386 19.6975 11.2779 19.6975 13.8799 19.6975C14.5562 19.6975 14.98 20.1272 14.9819 20.8095C14.9819 22.5422 14.9819 24.2749 14.9819 26.0076C14.9819 27.7184 14.9819 29.4292 14.9819 31.142H14.9839Z" fill="#3C6E71"/>
<path d="M17.3801 4.51892C16.9405 3.04484 15.55 1.96863 13.8809 1.98256C12.5839 1.9925 11.2849 1.98454 9.98787 1.98454C8.69084 1.98454 7.3779 1.98256 6.07292 1.98653C5.84614 1.98653 5.61737 2.00842 5.39457 2.04422C3.68177 2.33068 2.40862 3.83062 2.40464 5.56728C2.40066 7.45712 2.40265 9.34497 2.40464 11.2348C2.40464 11.4258 2.42652 11.6187 2.45835 11.8077C2.77266 13.5782 4.22684 14.8136 6.02717 14.8175C8.65902 14.8255 11.2889 14.8255 13.9207 14.8175C15.9578 14.8116 17.5373 13.2301 17.5472 11.193C17.5572 9.33304 17.5572 7.47105 17.5413 5.61105C17.5373 5.24502 17.4796 4.86904 17.3762 4.51892H17.3801ZM13.8511 12.2513C12.56 12.2513 11.269 12.2513 9.97792 12.2513C8.68687 12.2513 7.39581 12.2513 6.10475 12.2513C5.39258 12.2513 4.97084 11.8336 4.97084 11.1274C4.97084 9.30917 4.97084 7.49094 4.97084 5.67272C4.97084 4.96651 5.39258 4.54876 6.10475 4.54876C8.68687 4.54876 11.267 4.54876 13.8491 4.54876C14.5633 4.54876 14.983 4.96452 14.983 5.67073C14.983 7.48895 14.983 9.30718 14.983 11.1254C14.983 11.8336 14.5633 12.2494 13.8491 12.2494L13.8511 12.2513Z" fill="#3C6E71"/>
<path d="M35.2096 27.5906C34.8953 25.8142 33.4471 24.5828 31.6448 24.5768C28.9214 24.5689 26.1981 24.5689 23.4747 24.5808C23.1226 24.5808 22.7586 24.6325 22.4243 24.736C20.8747 25.2114 19.876 26.5741 19.8661 28.1954C19.8601 29.2079 19.8522 30.2205 19.8721 31.2311C19.88 31.5832 19.9258 31.9472 20.0272 32.2814C20.5047 33.8351 21.8872 34.8377 23.5085 34.8397C24.8632 34.8397 26.218 34.8397 27.5727 34.8397C28.9135 34.8397 30.2543 34.8416 31.5931 34.8377C31.8198 34.8377 32.0486 34.8178 32.2714 34.78C33.9981 34.4915 35.2633 32.9956 35.2673 31.241C35.2693 30.2225 35.2713 29.202 35.2653 28.1834C35.2653 27.9845 35.2454 27.7856 35.2116 27.5906H35.2096ZM32.6991 31.1773C32.6991 31.8438 32.2694 32.2735 31.603 32.2735C28.9075 32.2735 26.212 32.2735 23.5165 32.2735C22.866 32.2735 22.4323 31.8398 22.4303 31.1873C22.4303 30.1966 22.4283 29.2059 22.4303 28.2133C22.4303 27.5787 22.87 27.1391 23.5045 27.1391C24.8593 27.1371 26.214 27.1391 27.5687 27.1391C28.9095 27.1391 30.2503 27.1391 31.5911 27.1391C32.2714 27.1391 32.6971 27.5648 32.6991 28.2451C32.6991 29.2219 32.6991 30.1986 32.6991 31.1754V31.1773Z" fill="#3C6E71"/>
</svg>
