<svg width="37" height="37" viewBox="0 0 37 37" fill="none" xmlns="http://www.w3.org/2000/svg">
<path d="M13.9199 19.6932C11.288 19.6873 8.65806 19.6853 6.02616 19.6972C5.65415 19.6972 5.27021 19.7529 4.91412 19.8464C3.44598 20.2264 2.38368 21.4319 2.39959 22.8523C2.41749 24.3224 2.40357 25.7925 2.40357 27.2627C2.40357 28.7567 2.40357 30.2507 2.40556 31.7446C2.40556 31.9197 2.42545 32.0968 2.46126 32.2698C2.76961 33.7778 4.24769 34.8421 6.03412 34.8421C8.66601 34.8421 11.2959 34.8421 13.9278 34.8421C14.1327 34.8421 14.3396 34.8241 14.5425 34.7943C16.2991 34.5337 17.5444 33.2884 17.5484 31.7566C17.5584 28.7686 17.5584 25.7786 17.5484 22.7906C17.5425 21.048 15.9569 19.6992 13.9199 19.6932ZM14.9842 31.679C14.9842 32.2897 14.5684 32.6498 13.8602 32.6498C11.2721 32.6498 8.68193 32.6498 6.0938 32.6498C5.39753 32.6498 4.97181 32.2877 4.96982 31.6969C4.96982 28.7447 4.96982 25.7925 4.96982 22.8404C4.96982 22.2575 5.39753 21.8895 6.07191 21.8895C8.67397 21.8895 11.278 21.8895 13.8801 21.8895C14.5565 21.8895 14.9802 22.2575 14.9822 22.8424C14.9822 24.3244 14.9822 25.8065 14.9822 27.2885C14.9822 28.7527 14.9822 30.2168 14.9822 31.681L14.9842 31.679Z" fill="#3C6E71"/>
<path d="M13.9199 1.98797C11.288 1.98001 8.65806 1.98001 6.02616 1.99195C5.65415 1.99195 5.27021 2.04765 4.91412 2.14115C3.44797 2.52111 2.38368 3.72864 2.39959 5.14903C2.41749 6.61915 2.40357 8.08928 2.40357 9.5594C2.40357 11.0534 2.40357 12.5474 2.40556 14.0414C2.40556 14.2164 2.42545 14.3935 2.46126 14.5666C2.76961 16.0745 4.24769 17.1388 6.03412 17.1388C8.66601 17.1388 11.2959 17.1388 13.9278 17.1388C14.1327 17.1388 14.3396 17.1209 14.5425 17.091C16.2991 16.8304 17.5444 15.5851 17.5484 14.0533C17.5584 11.0653 17.5584 8.07535 17.5484 5.08736C17.5425 3.3447 15.9569 1.99592 13.9199 1.98996V1.98797ZM14.9842 13.9737C14.9842 14.5845 14.5684 14.9445 13.8602 14.9445C11.272 14.9445 8.68193 14.9445 6.0938 14.9445C5.39753 14.9445 4.97181 14.5825 4.96982 13.9916C4.96982 11.0395 4.96982 8.08729 4.96982 5.1351C4.96982 4.55223 5.39753 4.1842 6.07191 4.1842C8.67397 4.1842 11.278 4.1842 13.8801 4.1842C14.5565 4.1842 14.9802 4.55223 14.9822 5.1371C14.9822 6.61915 14.9822 8.10121 14.9822 9.58327C14.9822 11.0474 14.9822 12.5116 14.9822 13.9757L14.9842 13.9737Z" fill="#3C6E71"/>
<path d="M31.6328 19.6932C29.0009 19.6873 26.3709 19.6853 23.739 19.6972C23.367 19.6972 22.9831 19.7529 22.627 19.8464C21.1589 20.2264 20.0966 21.4319 20.1125 22.8523C20.1304 24.3224 20.1165 25.7925 20.1165 27.2627C20.1165 28.7567 20.1165 30.2507 20.1184 31.7446C20.1184 31.9197 20.1383 32.0968 20.1742 32.2698C20.4825 33.7778 21.9606 34.8421 23.747 34.8421C26.3789 34.8421 29.0088 34.8421 31.6407 34.8421C31.8456 34.8421 32.0525 34.8241 32.2554 34.7943C34.012 34.5337 35.2573 33.2884 35.2613 31.7566C35.2713 28.7686 35.2713 25.7786 35.2613 22.7906C35.2553 21.048 33.6698 19.6992 31.6328 19.6932ZM32.6971 31.679C32.6971 32.2897 32.2813 32.6498 31.5731 32.6498C28.9849 32.6498 26.3948 32.6498 23.8067 32.6498C23.1104 32.6498 22.6847 32.2877 22.6827 31.6969C22.6827 28.7447 22.6827 25.7925 22.6827 22.8404C22.6827 22.2575 23.1104 21.8895 23.7848 21.8895C26.3869 21.8895 28.9909 21.8895 31.593 21.8895C32.2693 21.8895 32.6931 22.2575 32.6951 22.8424C32.6951 24.3244 32.6951 25.8065 32.6951 27.2885C32.6951 28.7527 32.6951 30.2168 32.6951 31.681L32.6971 31.679Z" fill="#3C6E71"/>
<path d="M20.1165 9.55741C20.1165 11.0514 20.1165 12.5454 20.1184 14.0394C20.1184 14.2145 20.1383 14.3915 20.1742 14.5646C20.4825 16.0725 21.9606 17.1368 23.747 17.1368C26.3789 17.1368 29.0088 17.1368 31.6407 17.1368C31.8456 17.1368 32.0525 17.1189 32.2554 17.0891C34.012 16.8285 35.2573 15.5831 35.2613 14.0513C35.2713 11.0633 35.2713 8.07336 35.2613 5.08537C35.2553 3.34271 33.6698 1.99394 31.6328 1.98797C29.0009 1.98001 26.3709 1.98001 23.739 1.99195C23.367 1.99195 22.9831 2.04765 22.627 2.14115C21.1589 2.52111 20.0966 3.72665 20.1125 5.14704C20.1304 6.61716 20.1165 8.08729 20.1165 9.55741ZM22.6847 5.1351C22.6847 4.55223 23.1124 4.1842 23.7868 4.1842C26.3889 4.1842 28.9929 4.1842 31.595 4.1842C32.2713 4.1842 32.6951 4.55223 32.6971 5.1371C32.6971 6.61915 32.6971 8.10121 32.6971 9.58327C32.6971 11.0474 32.6971 12.5116 32.6971 13.9757C32.6971 14.5865 32.2813 14.9465 31.5731 14.9465C28.9849 14.9465 26.3948 14.9465 23.8067 14.9465C23.1104 14.9465 22.6847 14.5845 22.6827 13.9936C22.6827 11.0415 22.6827 8.08928 22.6827 5.1371L22.6847 5.1351Z" fill="#3C6E71"/>
</svg>
