<svg width="37" height="37" viewBox="0 0 37 37" fill="none" xmlns="http://www.w3.org/2000/svg">
<path d="M35.267 18.4114C35.267 16.2947 35.2669 14.1759 35.265 12.0591C35.265 11.8403 35.2451 11.6175 35.2073 11.4026C34.9108 9.65787 33.4227 8.40253 31.6521 8.40253C30.8265 8.40253 30.0009 8.40253 29.1753 8.40253C29.1753 8.26327 29.1753 8.126 29.1753 7.98674C29.1753 7.62665 29.1474 7.26258 29.0977 6.90846C28.7018 4.04764 26.7024 1.98658 24.323 1.98459C20.6644 1.98061 17.0078 1.9826 13.3493 1.98658C13.0827 1.98658 12.8141 2.01642 12.5515 2.07411C10.1423 2.60927 8.497 4.97473 8.49302 7.94894C8.49302 8.10014 8.49302 8.25134 8.49302 8.40054C7.6674 8.40054 6.84377 8.40054 6.01815 8.40054C5.81921 8.40054 5.62027 8.41845 5.4253 8.45426C3.63082 8.78053 2.40532 10.2229 2.40333 12.0353C2.39737 16.2847 2.39737 20.5342 2.4093 24.7836C2.4093 25.1497 2.46103 25.5296 2.57045 25.8758C3.05985 27.4316 4.41268 28.4163 6.04004 28.4203C6.85969 28.4203 7.68133 28.4203 8.50098 28.4223C8.50098 28.5695 8.50098 28.7167 8.50098 28.8659C8.50098 29.4648 8.57061 30.0894 8.71783 30.6584C9.37434 33.2109 11.1927 34.8283 13.3771 34.8343C17.0158 34.8442 20.6545 34.8462 24.2932 34.8243C24.7846 34.8223 25.2899 34.7268 25.7614 34.5577C27.7588 33.8396 29.1912 31.5318 29.1812 28.8301C29.1812 28.6929 29.1812 28.5556 29.1812 28.4183C29.9969 28.4183 30.8146 28.4163 31.6302 28.4124C31.9963 28.4124 32.3723 28.3527 32.7225 28.2492C34.2106 27.8115 35.2769 26.405 35.2689 24.7577C35.259 22.641 35.267 20.5222 35.267 18.4055V18.4114ZM6.11365 25.8659C5.45116 25.8718 4.95181 25.3586 4.95977 24.702C4.98563 22.6052 4.96972 20.5103 4.96972 18.4134C4.96972 16.3165 4.98563 14.2197 4.95977 12.1248C4.95181 11.4444 5.47504 10.955 6.11365 10.959C6.90744 10.9649 7.69923 10.9669 8.49302 10.9689C8.48904 15.9326 8.49103 20.8942 8.497 25.8579C7.70321 25.8599 6.90744 25.8619 6.11365 25.8679V25.8659ZM32.7085 24.702C32.7105 25.3864 32.1992 25.8718 31.5546 25.8679C30.7629 25.8619 29.9691 25.8619 29.1773 25.8579C29.1773 23.3751 29.1773 20.8942 29.1773 18.4114C29.1773 15.9286 29.1773 13.4498 29.1773 10.9689C29.9711 10.9669 30.7628 10.9649 31.5566 10.959C32.1793 10.955 32.7145 11.4205 32.7105 12.1228C32.6926 16.3145 32.6926 20.5083 32.7105 24.7001L32.7085 24.702Z" fill="#3C6E71"/>
</svg>
