<svg width="35" height="33" viewBox="0 0 35 33" fill="none" xmlns="http://www.w3.org/2000/svg">
<g clip-path="url(#clip0_6113_3463)">
<path d="M33.49 13.5556C33.2044 12.6901 32.7193 11.9515 32.0396 11.3364C28.5211 8.14978 25.0058 4.95987 21.4931 1.76661C20.6323 0.984573 19.6553 0.45292 18.4922 0.29017C18.4538 0.285162 18.4187 0.256785 18.382 0.239258H17.1321C16.6469 0.382812 16.1318 0.46544 15.6842 0.686614C15.1315 0.960369 14.5795 1.28671 14.1228 1.6965C10.5675 4.89059 7.03224 8.10638 3.49697 11.323C2.3447 12.3721 1.75855 13.6858 1.75855 15.2499C1.75855 19.1234 1.75688 22.996 1.75855 26.8695C1.76022 29.6045 3.79589 31.888 6.51789 32.2085C6.72413 32.2327 6.93371 32.2244 7.14245 32.2244C14.2147 32.2244 21.2877 32.2052 28.3599 32.2352C30.9617 32.2461 33.0909 30.4642 33.6303 27.8894C33.6678 27.7099 33.7154 27.5322 33.758 27.3535V14.6089C33.6703 14.2575 33.6035 13.8995 33.4908 13.5564L33.49 13.5556Z" fill="#3C6E71"/>
</g>
<defs>
<clipPath id="clip0_6113_3463">
<rect width="32" height="32" fill="white" transform="translate(1.75781 0.237305)"/>
</clipPath>
</defs>
</svg>
