<svg width="35" height="33" viewBox="0 0 35 33" fill="none" xmlns="http://www.w3.org/2000/svg">
<g clip-path="url(#clip0_6113_3460)">
<path d="M29.1327 32.2375H6.44681C6.38837 32.2175 6.3316 32.1891 6.27148 32.1799C3.70584 31.7767 1.76387 29.5269 1.76136 26.9382C1.75719 23.0214 1.75552 19.1054 1.76303 15.1886C1.76554 13.696 2.31573 12.4146 3.41279 11.4112C6.98616 8.14378 10.5754 4.89228 14.1663 1.64327C15.1406 0.762571 16.2903 0.273384 17.6161 0.239158C19.1214 0.200757 20.3896 0.760901 21.4909 1.76181C25.0041 4.95656 28.5207 8.14879 32.039 11.3385C32.7428 11.9763 33.2404 12.7418 33.5142 13.6492C33.6102 13.9656 33.677 14.2912 33.7572 14.6126V27.3623C33.7146 27.541 33.672 27.7196 33.6286 27.8983C33.0893 30.1188 31.7877 31.5997 29.5159 32.1407C29.3873 32.1715 29.2604 32.2049 29.1318 32.2375H29.1327ZM17.6587 29.168C21.1477 29.168 24.6368 29.1696 28.1258 29.168C29.5009 29.1671 30.3884 28.2739 30.3892 26.8982C30.39 23.1174 30.3859 19.3366 30.3925 15.5559C30.3942 14.7328 30.0836 14.0499 29.4909 13.5098C26.0502 10.3743 22.5879 7.26225 19.1607 4.11258C18.2423 3.26861 16.9432 3.47146 16.211 4.12511C15.0688 5.14438 13.9425 6.18119 12.8079 7.20882C10.3767 9.411 7.94128 11.6082 5.52091 13.8229C5.31803 14.0082 5.16274 14.2895 5.08342 14.555C4.98741 14.878 4.96487 15.2312 4.96403 15.5717C4.95652 19.3216 4.95902 23.0707 4.95986 26.8205C4.95986 28.2814 5.85153 29.168 7.31761 29.168C10.7649 29.168 14.2122 29.168 17.6595 29.168H17.6587Z" fill="#B7C2BD"/>
</g>
<defs>
<clipPath id="clip0_6113_3460">
<rect width="32" height="32" fill="white" transform="translate(1.75781 0.237305)"/>
</clipPath>
</defs>
</svg>
