<svg width="16" height="21" viewBox="0 0 16 21" fill="none" xmlns="http://www.w3.org/2000/svg">
<path d="M6.34277 20.46C5.14193 20.46 4.09049 20.2137 3.18848 19.7212C2.28646 19.2342 1.58366 18.5508 1.08008 17.6709C0.582031 16.791 0.333008 15.7645 0.333008 14.5913C0.333008 14.0435 0.39388 13.4956 0.515625 12.9478C0.642904 12.3944 0.800618 11.8576 0.98877 11.3374C1.18245 10.8172 1.38167 10.3358 1.58643 9.89307C2.02913 8.91911 2.55762 7.92301 3.17188 6.90479C3.78613 5.88102 4.39486 4.9043 4.99805 3.97461C5.1696 3.71452 5.36328 3.51253 5.5791 3.36865C5.79492 3.21924 6.04948 3.14453 6.34277 3.14453C6.63607 3.14453 6.89062 3.21924 7.10645 3.36865C7.32227 3.51253 7.51595 3.71452 7.6875 3.97461C8.28516 4.89323 8.88558 5.85889 9.48877 6.87158C10.0975 7.87874 10.6204 8.861 11.0576 9.81836C11.2679 10.2721 11.4727 10.7646 11.6719 11.2959C11.8711 11.8216 12.0316 12.3639 12.1533 12.9229C12.2806 13.4818 12.3442 14.0379 12.3442 14.5913C12.3442 15.7645 12.0952 16.791 11.5972 17.6709C11.0991 18.5508 10.3991 19.2342 9.49707 19.7212C8.59505 20.2137 7.54362 20.46 6.34277 20.46ZM6.34277 18.5923C7.17285 18.5923 7.89779 18.4263 8.51758 18.0942C9.13737 17.7622 9.61882 17.2974 9.96191 16.6997C10.3105 16.0965 10.4849 15.3937 10.4849 14.5913C10.4849 13.9383 10.3742 13.2826 10.1528 12.624C9.93148 11.9655 9.68522 11.3402 9.41406 10.748C8.99902 9.79069 8.52588 8.89421 7.99463 8.05859C7.46891 7.22298 6.94596 6.41227 6.42578 5.62646C6.39811 5.58219 6.37044 5.56283 6.34277 5.56836C6.3151 5.57389 6.28743 5.59326 6.25977 5.62646C5.73405 6.41781 5.20557 7.23682 4.67432 8.0835C4.1486 8.92464 3.67269 9.82389 3.24658 10.7812C2.98096 11.3678 2.74023 11.9876 2.52441 12.6406C2.30859 13.2936 2.20068 13.9438 2.20068 14.5913C2.20068 15.3937 2.37223 16.0965 2.71533 16.6997C3.06396 17.2974 3.54818 17.7622 4.16797 18.0942C4.78776 18.4263 5.5127 18.5923 6.34277 18.5923ZM12.6099 6.27393C12.1174 6.27393 11.6719 6.15771 11.2734 5.92529C10.875 5.68734 10.5568 5.36914 10.3188 4.9707C10.0809 4.57227 9.96191 4.12679 9.96191 3.63428C9.96191 3.13623 10.0809 2.68799 10.3188 2.28955C10.5568 1.89111 10.875 1.57568 11.2734 1.34326C11.6719 1.10531 12.1174 0.986328 12.6099 0.986328C13.1079 0.986328 13.5562 1.10531 13.9546 1.34326C14.353 1.57568 14.6685 1.89111 14.9009 2.28955C15.1333 2.68799 15.2495 3.13623 15.2495 3.63428C15.2495 4.12679 15.1333 4.57227 14.9009 4.9707C14.6685 5.36914 14.353 5.68734 13.9546 5.92529C13.5562 6.15771 13.1079 6.27393 12.6099 6.27393ZM12.6099 4.8877C12.964 4.8877 13.2601 4.76872 13.498 4.53076C13.7415 4.28727 13.8633 3.98844 13.8633 3.63428C13.8633 3.28011 13.7415 2.98128 13.498 2.73779C13.2601 2.4943 12.964 2.37256 12.6099 2.37256C12.2557 2.37256 11.9569 2.4943 11.7134 2.73779C11.4699 2.98128 11.3481 3.28011 11.3481 3.63428C11.3481 3.98844 11.4699 4.28727 11.7134 4.53076C11.9569 4.76872 12.2557 4.8877 12.6099 4.8877Z" fill="#3C6E71" fill-opacity="0.5"/>
</svg>
