<svg width="41" height="41" viewBox="0 0 41 41" fill="none" xmlns="http://www.w3.org/2000/svg">
<path d="M32.7663 24.6842C32.748 26.1216 32.3367 27.9303 31.4707 29.6313C30.3896 31.7536 28.817 33.4112 26.7648 34.6158C25.7287 35.224 24.6217 35.6578 23.4512 35.9247C21.9112 36.276 20.3671 36.3402 18.802 36.0716C17.071 35.7746 15.4768 35.1506 14.0294 34.1678C12.5211 33.1442 11.2989 31.8403 10.3812 30.2586C9.79561 29.2509 9.36014 28.1839 9.08985 27.0493C8.75282 25.6369 8.6502 24.2146 8.84875 22.7713C9.08901 21.0286 9.71719 19.4244 10.5481 17.8886C11.4432 16.2351 12.5419 14.7176 13.679 13.2277C14.9245 11.5942 16.2101 9.99 17.4297 8.33654C18.2531 7.22117 18.9972 6.0474 19.7647 4.89198C19.9766 4.57247 20.2094 4.29717 20.609 4.24712C21.077 4.18872 21.4182 4.39394 21.6776 4.7827C22.4702 5.97148 23.231 7.18446 24.0811 8.33154C25.5518 10.317 27.0952 12.2483 28.5784 14.2246C29.7255 15.7521 30.7783 17.343 31.5692 19.0924C32.3058 20.7225 32.7646 22.4176 32.768 24.6859L32.7663 24.6842ZM25.6578 18.2256C25.3875 18.2089 25.1397 18.425 24.8986 18.6661C21.8703 21.696 18.8412 24.7235 15.813 27.7526C15.5285 28.037 15.2307 28.3115 14.972 28.6185C14.5566 29.1124 14.7343 29.8465 15.3158 30.131C15.7462 30.342 16.16 30.2453 16.5713 29.834C19.3785 27.0276 22.1857 24.2204 24.9929 21.414C25.4784 20.9285 25.9673 20.4455 26.4486 19.955C26.7707 19.6263 26.8574 19.205 26.6797 18.8271C26.4987 18.4417 26.1934 18.2331 25.6586 18.2264L25.6578 18.2256ZM23.7524 26.2359C22.1056 26.2443 20.755 27.5974 20.7583 29.2367C20.7616 30.8734 22.1215 32.2491 23.7582 32.2341C25.4584 32.2182 26.7573 30.8793 26.7573 29.2208C26.7573 27.5732 25.3942 26.2276 23.7524 26.2359ZM17.7509 16.2242C16.1033 16.2242 14.7476 17.5707 14.756 19.2175C14.7643 20.8618 16.0357 22.2116 17.7442 22.2174C19.4235 22.2232 20.7391 20.911 20.7508 19.2142C20.7625 17.5699 19.396 16.2234 17.7509 16.2242Z" fill="#FBFBFB"/>
</svg>
