<svg width="41" height="41" viewBox="0 0 41 41" fill="none" xmlns="http://www.w3.org/2000/svg">
<g clip-path="url(#clip0_6113_3493)">
<path d="M19.34 0.442515C22.2869 0.345535 22.6081 0.509253 22.8375 0.535323C26.3392 0.928454 29.5468 2.10785 32.3936 4.19029C36.7483 7.37705 39.445 11.6264 40.421 16.9457C40.5472 17.6329 40.6264 18.3274 40.7276 19.0187V21.8291C40.6421 22.4558 40.5774 23.0877 40.4669 23.7102C39.5962 28.6239 37.2739 32.7168 33.4072 35.8744C28.9045 39.5512 23.7197 40.9684 17.9667 40.2176C14.6767 39.7879 11.6484 38.6002 9.00703 36.5835C2.75239 31.8085 0.0484397 25.4611 0.960879 17.6516C1.41345 13.7766 3.0329 10.3532 5.5919 7.40312C8.69941 3.82219 12.588 1.58541 17.267 0.75118C17.9541 0.628131 18.6497 0.544708 19.3411 0.443557L19.34 0.442515ZM8.25727 32.0828C8.31566 31.9566 8.3678 31.8419 8.41994 31.7282C9.96744 28.3892 12.5004 26.191 16.0677 25.2734C18.6351 24.6133 21.2827 24.7249 23.8657 25.0127C28.1912 25.4944 31.2612 27.8804 33.0777 31.8502C33.1173 31.9368 33.158 32.0223 33.2039 32.1214C39.0581 26.1128 39.8642 15.4503 32.9119 8.3896C26.1067 1.47592 14.8425 1.59584 8.17384 8.81193C1.67623 15.8434 2.54487 26.2286 8.25622 32.0817L8.25727 32.0828Z" fill="#3C6E71"/>
<path d="M20.7616 22.9092C17.2808 22.8884 14.2942 20.1625 13.8635 16.6796C13.4788 13.57 15.1107 10.5595 17.799 9.26851C21.333 7.57085 25.5084 9.17883 27.0882 12.8453C28.8745 16.9904 26.5345 21.7121 22.186 22.7163C21.7209 22.8237 21.2371 22.8466 20.7616 22.9092Z" fill="#3C6E71"/>
</g>
<defs>
<clipPath id="clip0_6113_3493">
<rect width="40" height="40" fill="white" transform="translate(0.757812 0.412109)"/>
</clipPath>
</defs>
</svg>
