<svg width="51" height="49" viewBox="0 0 51 49" fill="none" xmlns="http://www.w3.org/2000/svg">
<g clip-path="url(#clip0_6113_3467)">
<path d="M48.4215 7.34863H3.13859C2.40331 7.34863 1.77021 7.97159 1.758 8.76892C1.74578 9.56625 2.34777 10.2349 3.09083 10.2349H13.5902C13.5902 10.2349 13.5946 10.2373 13.5946 10.2397V12.5319C13.5946 12.5319 13.5924 12.5367 13.5902 12.5367C13.3458 12.5367 13.0893 12.5223 12.8349 12.5391C11.8442 12.6077 10.8146 12.5211 9.8716 12.7905C6.8905 13.6431 5.11229 15.7838 4.54583 19.0813C4.53361 19.1499 4.49585 19.2136 4.46919 19.281C4.46919 19.281 4.46919 19.281 4.46919 19.2822V25.7474C4.46919 25.8556 4.55028 25.9422 4.64913 25.9422H7.06155C7.06155 25.9422 7.06599 25.9446 7.06599 25.947V35.7664C7.06599 35.7664 7.06821 35.7712 7.07044 35.7712H17.953C17.953 35.7712 17.9574 35.7736 17.9574 35.776V41.1216C17.9574 41.1216 17.9597 41.1264 17.9619 41.1264H33.5793C33.5793 41.1264 33.5838 41.124 33.5838 41.1216V35.7579C33.5838 35.7579 33.586 35.7531 33.5882 35.7531H44.4419C44.4419 35.7531 44.4463 35.7507 44.4463 35.7483V35.1783C44.4463 32.0431 44.4497 28.9067 44.4397 25.7715C44.4397 25.4756 44.513 25.3193 44.7695 25.193C45.4237 24.8695 46.0546 24.4907 46.7077 24.166C46.9587 24.0409 47.0509 23.8942 47.0465 23.5911C47.0287 22.451 47.042 21.311 47.0387 20.1709C47.0298 16.8348 44.9939 13.8776 42.0506 12.8807C40.9843 12.5199 39.8958 12.5247 38.8018 12.5355C38.5041 12.5379 38.2065 12.5355 37.9188 12.5355C37.9166 12.5355 37.9155 12.5331 37.9155 12.5307V10.2385C37.9155 10.2385 37.9177 10.2337 37.9199 10.2337H48.3771C49.1135 10.2337 49.7466 9.61075 49.7577 8.81341C49.7688 8.01608 49.1646 7.34863 48.4215 7.34863ZM24.4739 10.2397V12.5319C24.4739 12.5319 24.4716 12.5367 24.4694 12.5367C23.8252 12.5367 23.191 12.5018 22.5624 12.5463C21.9048 12.592 21.2506 12.7135 20.5953 12.8025C20.4743 12.8193 20.341 12.8843 20.2355 12.8494C19.0215 12.4405 17.7731 12.5499 16.5313 12.5367C16.4247 12.5367 16.3181 12.5367 16.1837 12.5367C16.1814 12.5367 16.1792 12.5343 16.1792 12.5319V10.2397C16.1792 10.2397 16.1814 10.2349 16.1837 10.2349H24.4683C24.4683 10.2349 24.4728 10.2373 24.4728 10.2397H24.4739ZM27.4672 15.269C27.4672 15.269 27.4716 15.2714 27.4705 15.2738C27.3972 15.5913 27.3617 15.8884 27.2584 16.153C27.0818 16.6051 26.8774 17.0489 26.6508 17.4746C26.5575 17.649 26.3965 17.8414 26.2299 17.898C25.1825 18.2587 24.1151 17.4085 24.0862 16.2155C24.0785 15.9185 24.0851 15.6202 24.0862 15.2726C24.0862 15.2702 24.0885 15.2678 24.0907 15.2678H27.4694L27.4672 15.269ZM13.2437 15.2763H16.6135C16.6135 15.2763 16.6179 15.2787 16.6168 15.2811C16.5324 15.613 16.4869 15.9088 16.3814 16.177C16.2148 16.6015 15.9749 16.9948 15.826 17.4253C15.7116 17.7572 15.5161 17.8883 15.2229 17.9412C14.23 18.1192 13.3936 17.4903 13.2481 16.4103C13.1992 16.0507 13.2403 15.6755 13.2403 15.2799C13.2403 15.2775 13.2426 15.2763 13.2437 15.2763ZM17.9119 33.0244H9.59282C9.59282 33.0244 9.58837 33.022 9.58837 33.0196V23.4396C9.58837 23.3001 9.48397 23.187 9.35513 23.187H7.00601C7.00601 23.187 7.00268 23.1858 7.00268 23.1834C6.98602 23.0499 6.96048 22.9525 6.9627 22.8539C6.98602 21.7006 6.94271 20.5401 7.05377 19.3976C7.24481 17.441 8.94195 15.6058 10.708 15.3797C10.7102 15.3797 10.7124 15.3821 10.7124 15.3845C10.6235 16.8204 10.8857 18.1469 11.8175 19.2304C12.7427 20.3068 13.9056 20.7481 15.3107 20.7048C15.3129 20.7048 15.3151 20.7061 15.3151 20.7085V28.5808C15.3151 28.5808 15.3173 28.5856 15.3195 28.5856H17.9108C17.9108 28.5856 17.9152 28.588 17.9152 28.5904V33.0196C17.9152 33.0196 17.913 33.0244 17.9108 33.0244H17.9119ZM31.0403 38.435H20.4565C20.4565 38.435 20.4521 38.4326 20.4521 38.4302V25.8977C20.4521 25.8977 20.4498 25.8929 20.4476 25.8929H17.8808C17.8808 25.8929 17.8775 25.8917 17.8775 25.8893C17.8619 25.7306 17.8408 25.6175 17.8408 25.5057C17.8397 23.721 17.8275 21.9363 17.8441 20.1516C17.8653 17.9593 19.1725 16.1 21.1107 15.4699C21.2384 15.429 21.3717 15.4073 21.5739 15.3604C21.5761 15.3604 21.5783 15.3616 21.5783 15.3652C21.4961 16.8445 21.7493 18.1746 22.6957 19.2545C23.6286 20.3188 24.7904 20.7614 26.1699 20.7024C26.1721 20.7024 26.1743 20.7036 26.1743 20.7061C26.1743 21.6333 26.1999 22.5292 26.1632 23.4215C26.1455 23.8509 26.2876 24.0613 26.6331 24.2285C27.2395 24.5195 27.8193 24.8731 28.4235 25.1689C28.7023 25.3048 28.8 25.4792 28.7989 25.8147C28.7867 28.9343 28.7911 32.0539 28.7911 35.1735V35.7579C28.7911 35.7579 28.7934 35.7628 28.7956 35.7628H31.0369C31.0369 35.7628 31.0414 35.7652 31.0414 35.7676V38.4338C31.0414 38.4338 31.0392 38.4386 31.0369 38.4386L31.0403 38.435ZM39.8692 19.0032C40.6555 17.9581 40.8699 16.7326 40.7877 15.3677C40.7877 15.3652 40.7899 15.3628 40.7922 15.3628C40.9732 15.4037 41.1154 15.4254 41.252 15.4699C43.1657 16.094 44.4652 17.9196 44.5374 20.1023C44.5585 20.7313 44.5341 21.3615 44.5496 21.9916C44.5552 22.2225 44.473 22.3368 44.2875 22.433C43.6022 22.789 42.9291 23.1726 42.2394 23.519C41.9884 23.6452 41.9084 23.804 41.9095 24.1022C41.9206 26.8911 41.9162 29.6799 41.9162 32.4688C41.9162 32.6444 41.9162 32.8212 41.9162 33.0304C41.9162 33.0328 41.914 33.0352 41.9117 33.0352H31.3157C31.3157 33.0352 31.3113 33.0328 31.3113 33.0304V32.4856C31.3113 29.6968 31.3068 26.9079 31.3168 24.1191C31.318 23.81 31.2446 23.6392 30.9714 23.5045C30.2928 23.1714 29.6286 22.8022 28.9666 22.4294C28.8511 22.3645 28.6967 22.2069 28.6989 22.0963C28.7256 21.0656 28.6512 20.0037 28.8578 19.0128C29.2443 17.1583 30.4039 15.9882 32.0799 15.4266C32.1699 15.3965 32.2687 15.3989 32.4186 15.3785C32.4209 15.3785 32.4231 15.3797 32.4231 15.3833C32.3287 17.1511 32.7652 18.6845 34.1069 19.7873C34.9066 20.4451 35.8229 20.7602 36.8237 20.694C38.0576 20.6122 39.0817 20.0482 39.8681 19.0032H39.8692ZM38.2154 15.2738C38.2154 15.2738 38.2187 15.2751 38.2187 15.2775C38.4675 16.1061 38.2198 17.109 37.6489 17.5913C37.1035 18.0519 36.3272 18.1036 35.7441 17.7188C35.0599 17.2678 34.7933 16.4019 35.0043 15.2775C35.0043 15.2751 35.0066 15.2738 35.0088 15.2738H38.2165H38.2154ZM35.3264 12.5319C35.3264 12.5319 35.3242 12.5367 35.322 12.5367C34.7267 12.5367 34.148 12.5018 33.5749 12.5451C32.8485 12.6004 32.1254 12.7195 31.4013 12.8121C31.2946 12.8253 31.1769 12.8758 31.0825 12.8446C29.9363 12.4633 28.7589 12.5403 27.586 12.5367C27.4094 12.5367 27.2328 12.5367 27.0296 12.5367C27.0273 12.5367 27.0251 12.5343 27.0251 12.5319V10.2397C27.0251 10.2397 27.0273 10.2349 27.0296 10.2349H35.322C35.322 10.2349 35.3264 10.2373 35.3264 10.2397V12.5319Z" fill="#B7C2BD"/>
</g>
<defs>
<clipPath id="clip0_6113_3467">
<rect width="48" height="48" fill="white" transform="translate(1.75781 0.237305)"/>
</clipPath>
</defs>
</svg>
