<svg width="49" height="49" viewBox="0 0 49 49" fill="none" xmlns="http://www.w3.org/2000/svg">
<g clip-path="url(#clip0_6113_3470)">
<path d="M47.4215 8.63965H2.13859C1.40331 8.63965 0.770213 9.21499 0.757995 9.95138C0.745778 10.6878 1.34777 11.3053 2.09083 11.3053H12.5902C12.5902 11.3053 12.5946 11.3075 12.5946 11.3098V13.4267C12.5946 13.4267 12.5924 13.4312 12.5902 13.4312C12.3458 13.4312 12.0893 13.4178 11.8349 13.4334C10.8442 13.4967 9.81458 13.4167 8.8716 13.6655C5.8905 14.453 4.11229 16.43 3.54583 19.4756C3.53361 19.5389 3.49585 19.5977 3.46919 19.6599C3.46919 19.6599 3.46919 19.6599 3.46919 19.661V25.6321C3.46919 25.7321 3.55028 25.8121 3.64913 25.8121H6.06155C6.06155 25.8121 6.06599 25.8143 6.06599 25.8165V34.8853C6.06599 34.8853 6.06821 34.8897 6.07044 34.8897H16.953C16.953 34.8897 16.9574 34.892 16.9574 34.8942V39.8312C16.9574 39.8312 16.9597 39.8357 16.9619 39.8357H32.5793C32.5793 39.8357 32.5838 39.8334 32.5838 39.8312V34.8775C32.5838 34.8775 32.586 34.8731 32.5882 34.8731H43.4419C43.4419 34.8731 43.4463 34.8709 43.4463 34.8686V34.3422C43.4463 31.4466 43.4497 28.5499 43.4397 25.6543C43.4397 25.3811 43.513 25.2367 43.7695 25.1201C44.4237 24.8213 45.0546 24.4715 45.7077 24.1716C45.9587 24.0561 46.0509 23.9205 46.0465 23.6407C46.0287 22.5877 46.042 21.5348 46.0387 20.4818C46.0298 17.4008 43.9939 14.6696 41.0506 13.7488C39.9843 13.4156 38.8958 13.4201 37.8018 13.4301C37.5041 13.4323 37.2065 13.4301 36.9188 13.4301C36.9166 13.4301 36.9155 13.4278 36.9155 13.4256V11.3086C36.9155 11.3086 36.9177 11.3042 36.9199 11.3042H47.3771C48.1135 11.3042 48.7466 10.7289 48.7577 9.99247C48.7688 9.25608 48.1646 8.63965 47.4215 8.63965ZM23.4739 11.3098V13.4267C23.4739 13.4267 23.4716 13.4312 23.4694 13.4312C22.8252 13.4312 22.191 13.399 21.5624 13.4401C20.9048 13.4823 20.2506 13.5944 19.5953 13.6766C19.4743 13.6922 19.341 13.7522 19.2355 13.72C18.0215 13.3423 16.7731 13.4434 15.5313 13.4312C15.4247 13.4312 15.3181 13.4312 15.1837 13.4312C15.1814 13.4312 15.1792 13.429 15.1792 13.4267V11.3098C15.1792 11.3098 15.1814 11.3053 15.1837 11.3053H23.4683C23.4683 11.3053 23.4728 11.3075 23.4728 11.3098H23.4739ZM26.4672 15.9547C26.4672 15.9547 26.4716 15.9569 26.4705 15.9591C26.3972 16.2523 26.3617 16.5267 26.2584 16.771C26.0818 17.1886 25.8774 17.5985 25.6508 17.9917C25.5575 18.1527 25.3965 18.3304 25.2299 18.3826C24.1825 18.7158 23.1151 17.9306 23.0862 16.8288C23.0785 16.5544 23.0851 16.279 23.0862 15.958C23.0862 15.9558 23.0885 15.9536 23.0907 15.9536H26.4694L26.4672 15.9547ZM12.2437 15.9613H15.6135C15.6135 15.9613 15.6179 15.9636 15.6168 15.9658C15.5324 16.2723 15.4869 16.5456 15.3814 16.7932C15.2148 17.1853 14.9749 17.5485 14.826 17.9461C14.7116 18.2527 14.5161 18.3738 14.2229 18.4226C13.23 18.587 12.3936 18.0061 12.2481 17.0087C12.1992 16.6766 12.2403 16.3301 12.2403 15.9647C12.2403 15.9624 12.2426 15.9613 12.2437 15.9613ZM16.9119 32.3529H8.59282C8.59282 32.3529 8.58837 32.3507 8.58837 32.3485V23.5007C8.58837 23.3719 8.48397 23.2675 8.35513 23.2675H6.00601C6.00601 23.2675 6.00268 23.2664 6.00268 23.2641C5.98602 23.1408 5.96048 23.0509 5.9627 22.9598C5.98602 21.8946 5.94271 20.8228 6.05377 19.7677C6.24481 17.9606 7.94195 16.2657 9.70795 16.0568C9.71017 16.0568 9.71239 16.0591 9.71239 16.0613C9.62354 17.3875 9.88566 18.6126 10.8175 19.6133C11.7427 20.6074 12.9056 21.015 14.3107 20.975C14.3129 20.975 14.3151 20.9761 14.3151 20.9783V28.2489C14.3151 28.2489 14.3173 28.2534 14.3195 28.2534H16.9108C16.9108 28.2534 16.9152 28.2556 16.9152 28.2578V32.3485C16.9152 32.3485 16.913 32.3529 16.9108 32.3529H16.9119ZM38.8692 19.4034C39.6555 18.4382 39.8699 17.3064 39.7877 16.0457C39.7877 16.0435 39.7899 16.0413 39.7922 16.0413C39.9732 16.0791 40.1154 16.0991 40.252 16.1402C42.1657 16.7166 43.4652 18.4026 43.5374 20.4185C43.5585 20.9994 43.5341 21.5814 43.5496 22.1634C43.5552 22.3767 43.473 22.4822 43.2875 22.5711C42.6022 22.8998 41.9291 23.2541 41.2394 23.574C40.9884 23.6906 40.9084 23.8372 40.9095 24.1127C40.9206 26.6884 40.9162 29.2641 40.9162 31.8398C40.9162 32.0019 40.9162 32.1652 40.9162 32.3585C40.9162 32.3607 40.914 32.3629 40.9117 32.3629H30.3157C30.3157 32.3629 30.3113 32.3607 30.3113 32.3585V31.8553C30.3113 29.2796 30.3068 26.7039 30.3168 24.1282C30.318 23.8428 30.2446 23.6851 29.9714 23.5607C29.2928 23.253 28.6286 22.912 27.9666 22.5677C27.8511 22.5077 27.6967 22.3622 27.6989 22.2601C27.7256 21.3082 27.6512 20.3275 27.8578 19.4123C28.2443 17.6996 29.4039 16.6189 31.0799 16.1002C31.1699 16.0724 31.2687 16.0746 31.4186 16.0557C31.4209 16.0557 31.4231 16.0568 31.4231 16.0602C31.3287 17.6929 31.7652 19.109 33.1069 20.1275C33.9066 20.7351 34.8229 21.0261 35.8237 20.965C37.0576 20.8895 38.0817 20.3686 38.8681 19.4034H38.8692ZM37.2154 15.9591C37.2154 15.9591 37.2187 15.9602 37.2187 15.9624C37.4675 16.7277 37.2198 17.654 36.6489 18.0994C36.1035 18.5248 35.3272 18.5726 34.7441 18.2171C34.0599 17.8006 33.7933 17.0009 34.0043 15.9624C34.0043 15.9602 34.0066 15.9591 34.0088 15.9591H37.2165H37.2154ZM34.3264 13.4267C34.3264 13.4267 34.3242 13.4312 34.322 13.4312C33.7267 13.4312 33.148 13.399 32.5749 13.4389C31.8485 13.49 31.1254 13.6 30.4013 13.6855C30.2946 13.6977 30.1769 13.7444 30.0825 13.7155C28.9363 13.3634 27.7589 13.4345 26.586 13.4312C26.4094 13.4312 26.2328 13.4312 26.0296 13.4312C26.0273 13.4312 26.0251 13.429 26.0251 13.4267V11.3098C26.0251 11.3098 26.0273 11.3053 26.0296 11.3053H34.322C34.322 11.3053 34.3264 11.3075 34.3264 11.3098V13.4267Z" fill="#3C6E71"/>
</g>
<defs>
<clipPath id="clip0_6113_3470">
<rect width="48" height="48" fill="white" transform="translate(0.757812 0.237305)"/>
</clipPath>
</defs>
</svg>
