<svg width="49" height="47" viewBox="0 0 49 47" fill="none" xmlns="http://www.w3.org/2000/svg">
<path d="M1.75781 13.1636C2.35526 12.0847 3.01989 11.9045 4.1032 12.5293C4.74864 12.9017 5.39767 13.2681 6.0383 13.6478C6.78091 14.0887 7.01605 14.8781 6.62015 15.5605C6.22666 16.2369 5.42166 16.4171 4.67306 15.9918C4.05162 15.6386 3.44218 15.2601 2.81114 14.9237C2.34926 14.6786 1.97736 14.3639 1.75901 13.8833V13.1636H1.75781Z" fill="#3C6E71"/>
<path d="M1.75781 30.7903C1.94736 30.3241 2.29887 30.0274 2.73196 29.7919C3.38699 29.4363 4.02283 29.047 4.67066 28.677C5.41686 28.2517 6.22665 28.4331 6.61895 29.1083C7.01605 29.7919 6.77611 30.5849 6.0359 31.0198C5.40607 31.3898 4.77263 31.7527 4.14159 32.1215C3.02348 32.7763 2.39245 32.6153 1.75781 31.5112V30.7915L1.75781 30.7903Z" fill="#3C6E71"/>
<path d="M18.094 27.9129C18.1672 25.6999 18.8174 23.7271 20.1191 21.9838C24.6899 15.8565 34.1674 16.85 37.3814 23.8016C37.5434 24.1524 37.7221 24.2473 38.0808 24.2341C42.4261 24.0659 46.4786 27.1044 47.52 31.5821C48.7125 36.7111 45.2945 41.9758 40.1095 42.9297C39.512 43.0403 38.8954 43.1016 38.2884 43.1028C31.8988 43.1148 25.5093 43.1124 19.1197 43.1112C15.3203 43.11 12.3043 40.6686 11.5113 36.961C10.6367 32.8773 13.546 28.6494 17.6717 28.003C17.8037 27.9826 17.9344 27.949 18.0952 27.9141L18.094 27.9129Z" fill="#3C6E71"/>
<path d="M10.4572 29.7102C7.81068 26.6393 6.87732 23.1791 8.01102 19.3525C9.28389 15.0538 12.2687 12.4551 16.6764 11.6777C20.6438 10.9785 24.4072 12.7206 26.4778 15.3049C25.7724 15.4839 25.0538 15.6137 24.37 15.8455C19.8088 17.3942 16.9379 20.5215 15.7634 25.1976C15.6626 25.5964 15.5031 25.8091 15.106 25.9665C13.3412 26.6633 11.9016 27.8059 10.7535 29.3161C10.6731 29.4218 10.5928 29.5288 10.456 29.709L10.4572 29.7102Z" fill="#3C6E71"/>
<path d="M33.4896 12.1748C34.1782 12.182 34.7049 12.5593 34.8729 13.0807C35.0552 13.6454 34.8981 14.2749 34.3906 14.5945C33.5352 15.1352 32.6582 15.6482 31.7597 16.1143C31.1538 16.4279 30.3932 16.1287 30.0621 15.5376C29.7346 14.9537 29.8522 14.1872 30.4244 13.8184C31.287 13.2621 32.194 12.7719 33.0913 12.2709C33.2401 12.188 33.4332 12.1868 33.4908 12.1748H33.4896Z" fill="#3C6E71"/>
<path d="M17.0042 6.05234C17.0042 5.58738 16.9863 5.12243 17.0078 4.65867C17.045 3.90056 17.6077 3.36472 18.3383 3.36231C19.0641 3.35991 19.6724 3.89816 19.6975 4.63824C19.7299 5.58138 19.7275 6.52691 19.6999 7.47004C19.6772 8.23296 19.0641 8.77961 18.3155 8.7676C17.5909 8.75559 17.0378 8.20893 17.0066 7.44601C16.9875 6.98226 17.003 6.5173 17.003 6.05234C17.003 6.05234 17.0042 6.05234 17.0054 6.05234H17.0042Z" fill="#3C6E71"/>
</svg>
