<svg width="49" height="47" viewBox="0 0 49 47" fill="none" xmlns="http://www.w3.org/2000/svg">
<path d="M5.42193 16.2242C5.17707 16.247 4.94421 16.1496 4.72216 16.0211C3.98517 15.5968 3.24578 15.1738 2.5148 14.7399C1.78861 14.3085 1.55935 13.543 1.93865 12.8627C2.31194 12.1921 3.12095 11.9734 3.83993 12.3748C4.62253 12.8111 5.39793 13.2581 6.16252 13.7232C6.71466 14.0597 6.93912 14.6859 6.76387 15.2795C6.59703 15.848 6.0617 16.2302 5.42193 16.2242Z" fill="#B7C2BD"/>
<path d="M1.77282 30.9423C1.78842 30.6298 1.99487 30.2441 2.40778 29.9977C3.20238 29.5242 4.00058 29.0543 4.81199 28.6096C5.47816 28.2443 6.27636 28.4822 6.63885 29.118C7.00615 29.7634 6.8129 30.5517 6.15273 30.9531C5.37493 31.4266 4.58873 31.8881 3.78693 32.3184C2.82548 32.8339 1.75001 32.179 1.77282 30.9423Z" fill="#B7C2BD"/>
<path d="M33.5728 12.1768C34.1717 12.1732 34.6938 12.5265 34.8799 13.0493C35.0839 13.6225 34.9267 14.2739 34.4046 14.6032C33.5476 15.144 32.6689 15.6572 31.7687 16.1211C31.1613 16.4335 30.4016 16.1283 30.0727 15.5346C29.7486 14.9481 29.871 14.1838 30.4448 13.8148C31.3102 13.2596 32.22 12.7741 33.1142 12.2645C33.2583 12.1828 33.4263 12.166 33.5728 12.1768Z" fill="#B7C2BD"/>
<path d="M19.7248 6.06609C19.7248 6.51436 19.7356 6.96383 19.7224 7.41089C19.6984 8.20288 19.1174 8.77493 18.3552 8.77253C17.6122 8.77133 17.0373 8.2197 17.0181 7.43854C16.9953 6.52758 16.9953 5.61421 17.0181 4.70325C17.0397 3.89925 17.6242 3.35243 18.3948 3.36445C19.127 3.37647 19.6984 3.95093 19.7224 4.72008C19.7368 5.16835 19.7248 5.61662 19.7248 6.06488V6.06609Z" fill="#B7C2BD"/>
<path d="M47.5382 31.5675C46.5215 27.1281 42.4633 24.0575 38.0858 24.233C37.7437 24.2462 37.5744 24.1536 37.4124 23.8279C35.5855 20.1444 32.6208 18.1591 28.5073 17.9416C28.2421 17.9271 28.1581 17.807 28.0584 17.6111C25.8343 13.1825 21.2755 10.8846 16.3927 11.7235C11.7667 12.5191 7.98093 16.604 7.62924 21.2729C7.31596 25.4263 8.87275 28.7553 12.2456 31.2058C12.5373 31.4185 12.4977 31.5423 12.3548 31.7983C11.4498 33.4135 11.1413 35.1404 11.5338 36.9552C12.3512 40.7288 15.3244 43.1083 19.1774 43.1095C25.569 43.1107 31.9618 43.1095 38.3534 43.1095C38.7712 43.1095 39.1853 43.0879 39.603 43.0314C43.4343 42.5123 46.5815 39.6736 47.501 35.8988C47.5802 35.5743 47.5622 35.2222 47.7578 34.9277V32.5001C47.585 32.2129 47.6102 31.8788 47.5382 31.5675ZM10.2963 22.3257C10.2915 17.7733 14.1025 14.0634 18.6408 14.2605C21.3883 14.3794 23.5417 15.6329 25.1105 17.8971C25.3241 18.206 25.3637 18.3394 24.922 18.4908C21.0042 19.832 18.318 23.4398 18.1331 27.586C18.1199 27.89 17.9987 27.9645 17.7466 27.9994C16.6783 28.1484 15.6941 28.5342 14.8167 29.1519C14.5106 29.367 14.3065 29.3334 14.0269 29.1543C11.7103 27.6761 10.2999 25.1031 10.2975 22.3257H10.2963ZM38.4843 40.3791C35.2363 40.4079 31.9882 40.3851 28.7402 40.3851C28.7402 40.3947 28.7402 40.4043 28.7402 40.4127C25.5366 40.4127 22.3342 40.4223 19.1306 40.4091C16.6387 40.3995 14.7699 38.9009 14.2117 36.5045C13.5311 33.5769 15.8429 30.6349 18.8473 30.6085C19.0417 30.6073 19.2362 30.6121 19.4306 30.6145C20.3765 30.6277 20.9622 30.0569 20.8878 29.1026C20.8194 28.2301 20.8182 27.3708 20.9862 26.5116C21.5792 23.4926 24.2571 21.0254 27.2962 20.7057C31.0112 20.3151 34.138 22.3497 35.3131 25.9227C35.6299 26.8877 36.1545 27.2038 37.1447 27.0295C41.173 26.3229 44.8951 29.3382 45.0547 33.4363C45.1988 37.1342 42.1812 40.3454 38.4831 40.3779L38.4843 40.3791Z" fill="#B7C2BD"/>
</svg>
