<svg width="75" height="75" viewBox="0 0 75 75" fill="none" xmlns="http://www.w3.org/2000/svg">
<path d="M52.6739 37.4813C52.6215 45.5682 45.8222 52.3035 37.7702 52.2511C29.6832 52.1986 22.9421 45.4051 23.0004 37.3531C23.0528 29.2661 29.8522 22.5309 37.9042 22.5833C45.9911 22.6357 52.7322 29.4293 52.6739 37.4813ZM38.0032 26.4345C31.9438 26.318 26.9623 31.1539 26.8458 37.2482C26.7292 43.3018 31.5651 48.2891 37.6653 48.4057C43.7247 48.5222 48.7062 43.6863 48.8227 37.592C48.9393 31.5384 44.1034 26.5511 38.0032 26.4345Z" fill="#FAFAFA"/>
<path d="M52.5224 24.6983C50.9085 24.6342 49.9763 23.0028 50.9143 21.8609C52.2253 20.2703 53.7226 18.7962 55.3132 17.4911C55.7269 17.1532 57.0495 17.3454 57.4806 17.7708C57.9118 18.1961 58.1157 19.5303 57.7778 19.9323C56.426 21.5521 54.8355 22.9737 53.2973 24.4303C53.0817 24.6342 52.6797 24.6458 52.5224 24.6983Z" fill="#FAFAFA"/>
<path d="M19.6096 17.1816C19.8019 17.2516 20.2563 17.2807 20.501 17.5196C21.9576 18.9237 23.42 20.3337 24.7659 21.8427C25.4301 22.5885 25.2845 23.6489 24.4862 24.1499C23.9153 24.5112 22.715 24.6685 22.2897 24.3189C20.6933 23.008 19.1726 21.5631 17.8792 19.9608C16.9586 18.8188 17.9782 17.1816 19.6096 17.1875V17.1816Z" fill="#FAFAFA"/>
<path d="M58.1747 56.0499C57.9009 56.4461 57.6445 57.2093 57.1901 57.355C56.5434 57.5589 55.5296 57.5764 55.0635 57.1918C53.6185 55.9974 52.3076 54.6224 51.0375 53.2357C50.3383 52.4725 50.2742 51.4005 51.1016 50.777C51.6318 50.375 52.8669 50.1361 53.2631 50.4624C54.9003 51.7966 56.3453 53.3581 57.8252 54.8788C58.0291 55.0885 58.0233 55.508 58.1689 56.0499H58.1747Z" fill="#FAFAFA"/>
<path d="M25.3072 51.8771C24.9751 52.518 24.8236 53.0598 24.4799 53.4211C23.2855 54.6854 22.0503 55.9147 20.7743 57.0975C19.9645 57.8433 18.9798 57.9306 18.1641 57.1499C17.2902 56.3109 17.3776 55.2855 18.1641 54.4348C19.3411 53.1589 20.5296 51.8596 21.8697 50.7701C22.3882 50.3506 23.402 50.2574 24.0895 50.4263C24.5789 50.5487 24.8994 51.3527 25.3072 51.8713V51.8771Z" fill="#FAFAFA"/>
<path d="M61.1693 39.2292C60.2021 39.2292 59.2291 39.2816 58.262 39.2117C57.1666 39.1302 56.6073 38.4193 56.6306 37.3589C56.6481 36.3685 57.2016 35.6577 58.227 35.6227C60.1613 35.5528 62.1015 35.547 64.0359 35.611C65.0904 35.646 65.743 36.316 65.7546 37.3939C65.7663 38.4718 65.1312 39.1185 64.0708 39.2117C63.1095 39.2933 62.1365 39.2292 61.1635 39.2292H61.1693Z" fill="#FAFAFA"/>
<path d="M14.4065 39.2588C13.5325 39.2588 12.6586 39.2938 11.7905 39.2472C10.6776 39.1889 9.93769 38.6121 9.91438 37.4527C9.8969 36.2991 10.6019 35.6407 11.7205 35.6057C13.5617 35.5475 15.4028 35.5533 17.2439 35.5999C18.3975 35.629 19.0559 36.3165 19.0326 37.4585C19.0151 38.6063 18.3043 39.2122 17.1624 39.253C16.2418 39.2821 15.3212 39.2588 14.4007 39.253L14.4065 39.2588Z" fill="#FAFAFA"/>
<path d="M39.6397 14.1294C39.6397 15.0966 39.6921 16.0696 39.6222 17.0309C39.5464 18.0564 38.8706 18.6041 37.8801 18.6274C36.8139 18.6507 36.0739 18.0855 36.0332 16.996C35.9632 15.0616 35.9574 13.1215 36.0332 11.1871C36.0739 10.1384 36.7615 9.49166 37.8452 9.50913C38.923 9.52661 39.5523 10.1733 39.628 11.2279C39.6979 12.1893 39.6455 13.1623 39.6455 14.1353H39.6338L39.6397 14.1294Z" fill="#FAFAFA"/>
<path d="M36.0338 60.6759C36.0338 59.7087 35.9697 58.7357 36.0513 57.7744C36.1329 56.7548 36.8204 56.2187 37.8167 56.2071C38.8071 56.2013 39.5646 56.7081 39.6112 57.7278C39.6986 59.7087 39.7044 61.7013 39.6228 63.6823C39.5821 64.7368 38.8188 65.5117 37.805 65.2729C37.1292 65.1156 36.3193 64.3581 36.1095 63.6998C35.8182 62.7734 36.0338 61.6897 36.0338 60.6701V60.6759Z" fill="#FAFAFA"/>
</svg>
