<svg width="75" height="75" viewBox="0 0 75 75" fill="none" xmlns="http://www.w3.org/2000/svg">
<path d="M54.2247 65.1839C50.9087 65.0292 47.8686 65.0764 44.889 64.7064C41.7211 64.3096 39.145 61.6797 38.8827 58.7741C38.6137 55.7407 39.8378 53.2722 43.0393 51.5571C43.685 51.2141 44.3038 50.4608 44.5325 49.7613C46.8261 42.8201 54.682 40.4929 59.9754 45.4701C61.63 47.0305 63.3451 47.9184 65.3763 48.712C68.6183 49.9698 70.7167 53.0435 70.1383 57.9468C69.7549 61.182 66.8964 64.1885 63.3047 64.6459C60.2108 65.036 57.063 65.036 54.2247 65.1907V65.1839ZM53.8076 60.6506V60.6305C56.4913 60.6305 59.175 60.7179 61.8586 60.6036C64.2733 60.5027 66.2238 58.4445 66.2036 56.2989C66.1835 54.2004 64.2934 52.1154 61.973 52.0817C60.0157 52.0548 58.9328 51.2813 58.0652 49.5931C57.0025 47.5282 54.6013 46.6472 52.4961 47.2189C49.9671 47.9049 48.6959 49.4519 48.5748 51.9741C48.4672 54.3215 48.2116 54.604 45.8037 55.1084C43.9944 55.4851 42.8644 56.7227 43.0191 58.1419C43.1806 59.635 44.4182 60.6237 46.2611 60.6439C48.7766 60.6775 51.2921 60.6506 53.8076 60.6506Z" fill="#FAFAFA"/>
<path d="M31.2747 21.6678C38.4984 21.5199 45.305 27.2504 45.3252 35.5637C45.3454 43.2784 39.5812 49.473 31.2074 49.5806C23.7146 49.6748 17.3115 43.1977 17.3115 35.6579C17.3115 27.9432 23.5465 21.688 31.2747 21.6678ZM41.1282 35.6982C41.1417 30.2502 36.79 25.7909 31.4226 25.7841C26.1091 25.7707 21.6296 29.739 21.4547 35.6848C21.3067 40.8033 26.1293 45.4845 31.2343 45.5047C36.5747 45.5316 41.108 41.0319 41.1215 35.6982H41.1282Z" fill="#FAFAFA"/>
<path d="M52.9062 33.4906C53.6864 33.4906 54.4733 33.4234 55.2401 33.5041C56.5382 33.6453 57.2983 34.4121 57.305 35.5017C57.305 36.7595 56.5718 37.5935 55.4351 37.7078C53.7267 37.8693 51.9847 37.8558 50.2763 37.6944C49.1396 37.5868 48.3796 36.7527 48.3056 35.5353C48.2518 34.5601 49.3481 33.5781 50.5655 33.4772C51.339 33.4166 52.1259 33.4637 52.9062 33.4637V33.4839V33.4906Z" fill="#FAFAFA"/>
<path d="M33.4273 56.9577C33.4273 57.7985 33.4879 58.6392 33.4139 59.4732C33.3063 60.6435 32.3781 61.6121 31.4095 61.6053C30.2325 61.5986 29.4119 60.9126 29.311 59.8163C29.1496 58.0473 29.0891 56.2448 29.264 54.4826C29.3917 53.2113 30.5957 52.4446 31.6718 52.6463C32.9094 52.8817 33.4273 53.736 33.4408 54.9399C33.4475 55.6125 33.4408 56.2851 33.4408 56.951C33.434 56.951 33.4273 56.951 33.4206 56.951L33.4273 56.9577Z" fill="#FAFAFA"/>
<path d="M33.4408 13.9855C33.4408 14.7658 33.4879 15.5527 33.4274 16.3329C33.3332 17.5436 32.3781 18.613 31.3759 18.6332C30.1585 18.6534 29.4254 17.853 29.3245 16.8037C29.1496 15.0415 29.0959 13.239 29.264 11.4835C29.3783 10.2459 30.468 9.51951 31.4903 9.6473C32.7346 9.80872 33.3399 10.6158 33.4207 11.8131C33.4677 12.5327 33.4274 13.2659 33.4274 13.9923H33.4341L33.4408 13.9855Z" fill="#FAFAFA"/>
<path d="M9.85969 33.4836C10.6399 33.4836 11.4269 33.4163 12.1936 33.497C13.2698 33.6181 14.1038 34.1226 14.2719 35.3131C14.4468 36.5372 13.7271 37.4115 12.7048 37.5259C10.7946 37.7411 8.83062 37.7546 6.92044 37.573C5.81065 37.4654 5.30621 36.4565 5.46091 35.2996C5.60888 34.21 6.30838 33.6114 7.35091 33.497C8.17821 33.4029 9.01894 33.4768 9.85296 33.4768L9.85969 33.4836Z" fill="#FAFAFA"/>
<path d="M14.0369 54.6377C13.6737 54.3686 12.8935 54.066 12.6447 53.5212C12.3891 52.9696 12.3756 51.9473 12.7321 51.5303C13.9764 50.0505 15.3552 48.6516 16.8484 47.4207C17.2654 47.0777 18.4761 47.1517 18.92 47.5149C19.4379 47.9453 19.9625 49.2905 19.7137 49.5797C18.2205 51.315 16.5121 52.8687 14.8642 54.4695C14.7633 54.5637 14.5481 54.5435 14.0437 54.6377H14.0369Z" fill="#FAFAFA"/>
<path d="M48.4931 16.5479C48.9438 16.8976 49.7038 17.2406 50.0536 17.8258C50.3226 18.2832 50.3159 19.2517 49.993 19.6284C48.7756 21.0744 47.4506 22.4465 46.0382 23.7043C45.2647 24.3836 44.101 24.3769 43.4755 23.5227C43.0652 22.9645 42.803 21.7134 43.1325 21.3031C44.4038 19.7023 45.9373 18.3101 47.3968 16.864C47.5717 16.6958 47.9214 16.7025 48.4999 16.5479H48.4931Z" fill="#FAFAFA"/>
<path d="M17.9101 24.1022C16.3833 24.1156 12.2939 20.0531 12.3343 18.5734C12.3814 17.0197 14.0965 16.0175 15.3677 17.0063C16.8945 18.1968 18.2935 19.6092 19.4907 21.1293C20.4795 22.387 19.4638 24.0887 17.9101 24.1022Z" fill="#FAFAFA"/>
</svg>
