<svg width="75" height="75" viewBox="0 0 75 75" fill="none" xmlns="http://www.w3.org/2000/svg">
<path d="M37.9791 29.3732C39.0477 27.4309 39.9146 25.5626 41.0504 23.8757C43.9873 19.4872 48.1876 17.0543 53.4095 16.4495C54.7805 16.2882 56.1918 16.3083 57.5696 16.4495C59.5521 16.6511 60.2108 17.9885 59.1086 19.6014C56.6757 23.1432 56.1986 27.1083 56.7765 31.1675C57.3007 34.8302 59.4715 37.6932 62.5495 39.6556C64.2565 40.7444 66.2593 41.4232 68.2015 42.0885C70.3655 42.8278 70.8763 44.2189 69.3709 45.973C65.4192 50.5766 60.3989 52.6465 54.3571 52.1559C53.0937 52.0551 52.1729 52.3038 51.3463 53.4261C48.6379 57.109 44.7467 58.4262 40.3514 58.4531C32.2935 58.4934 24.2355 58.5068 16.1775 58.4464C12.4274 58.4195 9.19485 57.2299 6.97706 53.9032C4.01328 49.4677 5.25659 41.9608 11.2379 39.696C13.3414 38.9029 14.3025 37.9083 14.8133 35.6502C16.2985 29.1447 22.757 24.4201 30.4722 25.6701C32.4884 25.9994 34.3634 27.2494 36.2653 28.15C36.8903 28.4457 37.4146 28.9699 37.9791 29.3866V29.3732ZM28.2342 54.6963C31.9776 54.6963 35.7277 54.7232 39.4711 54.6829C40.6942 54.6694 41.9308 54.5686 43.1338 54.3535C48.4699 53.4059 52.1259 47.1491 49.1218 41.9541C47.2467 38.708 44.3771 37.3975 40.8958 37.4715C38.9065 37.5118 37.9724 36.7456 37.2264 35.0655C34.9212 29.8839 28.2679 27.7132 23.3013 30.4552C19.5983 32.5049 17.9988 35.7308 18.187 39.8841C18.2609 41.4971 17.5687 42.4111 15.9557 42.6127C15.5122 42.6664 15.0619 42.6261 14.6183 42.6732C12.2325 42.9353 10.465 44.2189 9.63168 46.3829C8.89242 48.3117 8.9865 50.375 10.4045 52.0887C11.8831 53.8764 13.8522 54.6896 16.1574 54.6896C20.183 54.6896 24.2086 54.6896 28.2342 54.6896V54.6963ZM53.8128 47.9824C56.1381 49.3534 62.2336 47.7338 64.3372 45.2539C54.0009 39.8572 50.2509 31.7052 54.2496 20.0853C52.892 20.4079 51.8772 20.5961 50.896 20.8851C46.4604 22.1821 42.0719 27.3973 41.6082 31.8665C41.5007 32.9216 41.7359 33.4525 42.959 33.6474C46.9578 34.2926 50.1702 36.2617 52.2872 39.8035C53.806 42.3439 54.2362 45.106 53.8128 47.9824Z" fill="#FAFAFA"/>
</svg>
